# xmcd
#
# Track frame offsets: 
#        150
#        10327
#        22265
#        37615
#        47559
#        58963
#        68750
#        88694
#        99623
#        115667
#        135475
#        145115
#        156488
#        170580
#
# Disc length: 2413 seconds
#
# Revision: 0
# Processed by: cddbd v1.5.2PL0 Copyright (c) Steve Scherf et al.
# Submitted via: ExactAudioCopy v1.0b4
#
DISCID=bb096b0e
DTITLE=Howlin' Wilf and The Vee-Jays - Cry Wilf! 
DYEAR=1986
DGENRE=Blues
TTITLE0=Got A Thing For You
TTITLE1=Same Old Nothing
TTITLE2=Ya Ya
TTITLE3=Got My Eyes On You
TTITLE4=Hello Stranger
TTITLE5=Get It Over Baby
TTITLE6=Wilf's Wobble
TTITLE7=Boom Boom (Out Go The Lights)
TTITLE8=Summertime
TTITLE9=Mellow Down Easy
TTITLE10=Don't Let It Be In Vain
TTITLE11=Further On Up The Road
TTITLE12=Can't Stand It Anymore
TTITLE13=Shake It
EXTD=
EXTT0=
EXTT1=
EXTT2=
EXTT3=
EXTT4=
EXTT5=
EXTT6=
EXTT7=
EXTT8=
EXTT9=
EXTT10=
EXTT11=
EXTT12=
EXTT13=
PLAYORDER=
